<?xml version="1.0" encoding="UTF-8"?>
<svg xmlns="http://www.w3.org/2000/svg" xmlns:xlink="http://www.w3.org/1999/xlink" width="1440pt" height="809.999993pt" viewBox="0 0 1440 809.999993" version="1.2">
<defs>
<clipPath id="clip1">
  <path d="M 1063 389 L 1130 389 L 1130 606.011719 L 1063 606.011719 Z M 1063 389 "/>
</clipPath>
<clipPath id="clip2">
  <path d="M 1092.234375 392 L 1146 392 L 1146 575 L 1092.234375 575 Z M 1092.234375 392 "/>
</clipPath>
</defs>
<g id="surface1">
<rect x="0" y="0" width="1440" height="809.999993" style="fill:rgb(100%,100%,100%);fill-opacity:1;stroke:none;"/>
<rect x="0" y="0" width="1440" height="809.999993" style="fill:rgb(100%,100%,100%);fill-opacity:1;stroke:none;"/>
<rect x="0" y="0" width="1440" height="809.999993" style="fill:rgb(94.509888%,98.039246%,93.328857%);fill-opacity:1;stroke:none;"/>
<path style=" stroke:none;fill-rule:nonzero;fill:rgb(12.548828%,29.798889%,41.178894%);fill-opacity:1;" d="M 998.015625 433.859375 C 1092.484375 211.242188 982.683594 111.042969 947.566406 53.785156 C 895.878906 -30.375 908.988281 -52.832031 908.988281 -52.832031 L 869.417969 -52.832031 C 881.042969 33.054688 1079.625 182.863281 989.855469 364.507812 C 857.796875 631.300781 958.449219 809.242188 958.449219 809.242188 L 1002.960938 809.242188 C 1002.960938 809.242188 893.902344 679.425781 998.015625 433.859375 Z M 998.015625 433.859375 "/>
<path style=" stroke:none;fill-rule:nonzero;fill:rgb(27.059937%,48.239136%,61.569214%);fill-opacity:1;" d="M 993.5625 536.035156 C 1067.753906 327.488281 1090.507812 231.726562 1007.90625 106.601562 C 935.199219 -3.472656 945.339844 -52.832031 945.339844 -52.832031 L 908.988281 -52.832031 C 908.988281 -52.832031 895.878906 -30.375 947.566406 53.785156 C 982.683594 111.042969 1092.484375 211.242188 998.015625 433.859375 C 893.902344 679.179688 1002.714844 808.996094 1002.714844 808.996094 L 1055.636719 808.996094 C 1055.636719 809.242188 945.339844 671.035156 993.5625 536.035156 Z M 993.5625 536.035156 "/>
<path style=" stroke:none;fill-rule:nonzero;fill:rgb(65.879822%,85.488892%,86.268616%);fill-opacity:1;" d="M 1304.917969 -52.832031 L 945.09375 -52.832031 C 945.09375 -52.832031 935.199219 -3.472656 1007.660156 106.601562 C 1090.011719 231.480469 1067.507812 327.488281 993.316406 536.035156 C 945.339844 671.035156 1055.636719 809.242188 1055.636719 809.242188 L 1526.25 809.242188 L 1526.25 -52.832031 Z M 1304.917969 -52.832031 "/>
<path style=" stroke:none;fill-rule:nonzero;fill:rgb(59.21936%,64.309692%,71.759033%);fill-opacity:1;" d="M 1076.480469 349.902344 C 1076.480469 349.902344 1067.578125 410.328125 1066.714844 425.816406 C 1065.855469 441.296875 1058.257812 419.976562 1058.257812 419.976562 L 1070.265625 339.019531 L 1076.480469 349.902344 "/>
<path style=" stroke:none;fill-rule:nonzero;fill:rgb(36.079407%,58.81958%,83.918762%);fill-opacity:1;" d="M 1021.808594 306.722656 C 1021.808594 306.722656 1119.238281 284.601562 1090.53125 357.25 L 1001.316406 352.546875 L 1021.808594 306.722656 "/>
<path style=" stroke:none;fill-rule:nonzero;fill:rgb(59.21936%,51.759338%,78.819275%);fill-opacity:1;" d="M 1064.074219 289.789062 L 1060.050781 364.4375 L 1059.683594 371.386719 C 1059.683594 371.386719 965.085938 369.914062 974.746094 362.183594 C 974.992188 361.984375 975.226562 361.796875 975.449219 361.597656 C 984.308594 353.988281 982.164062 345.027344 974.457031 353.71875 C 971.796875 356.71875 967.761719 359.507812 963.484375 361.597656 L 943.996094 361.597656 C 942.351562 353.761719 956.050781 335.109375 969.335938 315.035156 C 982.945312 294.464844 993.042969 287.597656 996.710938 286.730469 C 998.539062 286.289062 1004.808594 284.375 1010.664062 282.5625 C 1011.917969 282.164062 1013.148438 281.785156 1014.308594 281.421875 C 1014.589844 281.769531 1015.007812 282.285156 1015.503906 282.902344 C 1022.496094 291.511719 1023.160156 292.0625 1023.707031 292.433594 C 1025.234375 293.46875 1028.644531 294.996094 1035.617188 292.820312 C 1039.070312 290.261719 1042.519531 287.707031 1045.972656 285.148438 C 1047.371094 283.847656 1048.765625 282.542969 1050.15625 281.246094 C 1051.292969 283.191406 1052.425781 285.140625 1053.558594 287.085938 L 1064.074219 289.789062 "/>
<path style=" stroke:none;fill-rule:nonzero;fill:rgb(84.709167%,57.649231%,52.159119%);fill-opacity:1;" d="M 1030.207031 345.492188 C 1029.765625 345.253906 1008.238281 345.492188 1008.238281 345.492188 C 1008.238281 345.492188 997.699219 341.316406 992.421875 342.914062 C 987.148438 344.523438 978.21875 349.339844 987.445312 355.757812 C 987.445312 355.757812 989.644531 357.511719 990.667969 357.21875 C 991.695312 356.925781 997.988281 354.152344 1001.792969 355.757812 C 1005.605469 357.367188 1009.851562 355.320312 1009.851562 355.320312 L 1032.84375 357.25 L 1030.207031 345.492188 "/>
<path style=" stroke:none;fill-rule:nonzero;fill:rgb(59.21936%,51.759338%,78.819275%);fill-opacity:1;" d="M 1077.0625 313.582031 C 1071.207031 343.5 1072.375 354.296875 1072.375 354.296875 C 1072.375 354.296875 1073.460938 358.585938 1069.382812 361.597656 L 1036.332031 361.597656 L 1031.238281 360.433594 C 1031.238281 360.433594 1027.863281 352.480469 1027.699219 344.375 C 1027.675781 343.699219 1027.6875 343.011719 1027.71875 342.335938 C 1027.71875 342.335938 1041.136719 341.304688 1048.921875 341.464844 C 1051.328125 341.527344 1053.1875 341.691406 1053.976562 342.039062 C 1052.683594 321.703125 1051.414062 301.378906 1050.121094 281.035156 C 1054.34375 281.1875 1060.554688 281.710938 1067.980469 283.511719 C 1072.058594 284.496094 1072.921875 284.988281 1073.421875 285.332031 C 1077.179688 287.9375 1080.753906 294.742188 1077.0625 313.582031 "/>
<path style=" stroke:none;fill-rule:nonzero;fill:rgb(65.489197%,68.629456%,87.449646%);fill-opacity:1;" d="M 1027.699219 344.375 C 1027.675781 343.699219 1027.6875 343.011719 1027.71875 342.335938 C 1027.71875 342.335938 1041.136719 341.304688 1048.921875 341.464844 L 1053.976562 342.039062 C 1053.976562 342.039062 1056.707031 343.207031 1058.179688 348.167969 C 1059.457031 352.535156 1044.789062 345.054688 1027.699219 344.375 "/>
<path style=" stroke:none;fill-rule:nonzero;fill:rgb(84.709167%,57.649231%,52.159119%);fill-opacity:1;" d="M 1050.988281 281.070312 L 1046.371094 285.148438 L 1036.542969 293.792969 C 1022.242188 298.394531 1017.0625 289.523438 1015.210938 283.347656 C 1014.996094 282.671875 1014.832031 282.011719 1014.703125 281.421875 C 1014.800781 281.292969 1014.914062 281.167969 1015.050781 281.035156 C 1015.304688 280.78125 1015.558594 280.59375 1015.777344 280.453125 C 1016.453125 279.5 1017.320312 278.113281 1017.691406 276.773438 C 1017.738281 276.613281 1017.847656 276.171875 1017.976562 275.640625 C 1018.125 274.984375 1018.253906 274.320312 1018.363281 273.644531 C 1019.367188 273.890625 1021.375 274.21875 1023.5625 273.394531 C 1028.503906 271.566406 1029.472656 265.738281 1029.523438 265.46875 C 1030.757812 264.175781 1032.105469 262.597656 1033.425781 260.699219 C 1034.503906 259.152344 1035.371094 257.671875 1036.058594 256.3125 C 1036.132812 252.371094 1038.078125 248.953125 1041.136719 247.558594 C 1042.894531 246.765625 1044.589844 246.832031 1045.632812 246.976562 C 1043.898438 252.441406 1042.507812 259.863281 1044.753906 267.40625 L 1044.765625 267.40625 C 1044.941406 268.050781 1045.152344 268.679688 1045.402344 269.320312 C 1046.371094 271.84375 1047.050781 273.878906 1047.765625 275.640625 C 1048.605469 277.707031 1049.496094 279.398438 1050.988281 281.070312 "/>
<path style=" stroke:none;fill-rule:nonzero;fill:rgb(9.01947%,9.01947%,16.859436%);fill-opacity:1;" d="M 1046.988281 216.230469 C 1037.429688 203.1875 1009.117188 217.601562 1000.332031 214.285156 C 991.542969 210.984375 992.328125 224.792969 992.328125 224.792969 C 992.328125 224.792969 990.960938 233.550781 1000.132812 236.078125 C 1001.867188 236.5625 1004.023438 236.617188 1006.378906 236.421875 C 1016.472656 235.558594 1030.238281 229.835938 1030.402344 231.410156 C 1030.59375 233.363281 1038.792969 241.140625 1038.792969 241.140625 L 1038.792969 245.382812 L 1038.113281 251.589844 L 1040.453125 246.742188 L 1046.019531 249.847656 C 1045.164062 252.628906 1043.601562 254.4375 1042.519531 255.421875 C 1042.761719 257.269531 1043.15625 259.75 1043.710938 262.464844 C 1043.910156 265.484375 1044.894531 269.121094 1045.402344 269.320312 C 1045.90625 268.988281 1046.445312 268.609375 1046.988281 268.191406 C 1066.523438 253.597656 1056.5625 229.273438 1046.988281 216.230469 "/>
<path style=" stroke:none;fill-rule:nonzero;fill:rgb(92.158508%,71.369934%,67.059326%);fill-opacity:1;" d="M 1046.597656 246.683594 C 1046.273438 251.320312 1043.972656 254.097656 1042.519531 255.421875 C 1042.179688 255.722656 1041.871094 255.945312 1041.664062 256.097656 C 1041.453125 256.246094 1041.335938 256.3125 1041.335938 256.3125 C 1040.949219 259.085938 1038.21875 262.550781 1035.527344 265.378906 C 1032.746094 268.304688 1030.007812 270.527344 1030.007812 270.527344 C 1025.265625 273.425781 1021.441406 274.253906 1018.363281 273.644531 C 1006.222656 271.257812 1005.753906 246.367188 1006.378906 236.421875 C 1016.472656 235.558594 1030.238281 229.835938 1030.402344 231.410156 C 1030.59375 233.363281 1038.792969 241.140625 1038.792969 241.140625 L 1038.792969 249.308594 C 1038.507812 250.246094 1038.277344 251.007812 1038.113281 251.589844 C 1038.542969 250.167969 1039.28125 247.726562 1040.335938 244.242188 L 1040.453125 246.742188 C 1041.324219 243.136719 1046.285156 238.101562 1046.609375 244.839844 C 1046.644531 245.480469 1046.632812 246.101562 1046.597656 246.683594 "/>
<path style=" stroke:none;fill-rule:nonzero;fill:rgb(84.709167%,57.649231%,52.159119%);fill-opacity:1;" d="M 1014.703125 281.421875 C 1014.703125 281.421875 1028.226562 311.269531 1050.988281 281.070312 L 1014.703125 281.421875 "/>
<path style=" stroke:none;fill-rule:nonzero;fill:rgb(25.878906%,45.489502%,76.469421%);fill-opacity:1;" d="M 1001.320312 499.761719 C 1001.902344 483.410156 993.304688 449.554688 993.304688 448 L 1010.085938 448 Z M 1016.144531 450.042969 L 1010.875 425.03125 L 928.484375 414.921875 L 906.226562 466.296875 C 906.226562 466.296875 918.324219 507.160156 929.65625 470.1875 C 940.972656 433.207031 968.144531 437.375 984 448.382812 C 999.855469 459.40625 997.601562 553.082031 997.988281 559.503906 C 998.375 565.925781 1003.960938 559.503906 1003.960938 559.503906 C 1003.496094 529.730469 1016.144531 450.042969 1016.144531 450.042969 "/>
<path style=" stroke:none;fill-rule:nonzero;fill:rgb(25.878906%,45.489502%,76.469421%);fill-opacity:1;" d="M 1055.78125 442.941406 L 1085.074219 556.582031 L 1092.875 554.25 L 1063.203125 439.4375 L 1055.78125 442.941406 "/>
<path style=" stroke:none;fill-rule:nonzero;fill:rgb(36.079407%,58.81958%,83.918762%);fill-opacity:1;" d="M 1042.972656 411.027344 C 1042.972656 411.027344 1071.398438 410.636719 1070.230469 425.816406 C 1069.0625 440.996094 1067.910156 443.71875 1048.570312 447.609375 C 1029.230469 451.503906 989.792969 462.011719 924.964844 444.105469 C 860.144531 426.203125 942.445312 424.652344 943.855469 424.652344 C 945.273438 424.652344 1042.972656 411.027344 1042.972656 411.027344 "/>
<path style=" stroke:none;fill-rule:nonzero;fill:rgb(84.709167%,57.649231%,52.159119%);fill-opacity:1;" d="M 901.632812 520.828125 C 901.484375 523.964844 899.878906 553.226562 899.878906 553.226562 L 922.28125 545.929688 L 921.402344 518.925781 L 901.632812 520.828125 "/>
<path style=" stroke:none;fill-rule:nonzero;fill:rgb(12.548828%,15.289307%,31.759644%);fill-opacity:1;" d="M 926.527344 549.867188 C 925.648438 543.59375 925.066406 537.753906 922.570312 537.464844 C 920.089844 537.175781 908.660156 548.414062 901.925781 546.515625 C 901.925781 546.515625 905.003906 537.753906 899 536.734375 C 892.996094 535.714844 888.601562 536.589844 887.722656 544.757812 L 886.992188 544.910156 C 886.992188 544.910156 855.945312 555.128906 873.8125 561.546875 C 891.679688 567.972656 908.371094 557.023438 915.988281 558.480469 C 923.597656 559.941406 927.40625 556.148438 926.527344 549.867188 "/>
<path style=" stroke:none;fill-rule:nonzero;fill:rgb(84.709167%,57.649231%,52.159119%);fill-opacity:1;" d="M 964.453125 530.164062 C 964.304688 533.304688 962.699219 562.566406 962.699219 562.566406 L 985.101562 555.273438 L 984.222656 528.269531 L 964.453125 530.164062 "/>
<path style=" stroke:none;fill-rule:nonzero;fill:rgb(12.548828%,15.289307%,31.759644%);fill-opacity:1;" d="M 989.347656 559.210938 C 988.46875 552.933594 987.890625 547.097656 985.394531 546.804688 C 982.910156 546.515625 971.484375 557.753906 964.75 555.859375 C 964.75 555.859375 967.824219 547.097656 961.820312 546.074219 C 955.816406 545.054688 951.421875 545.929688 950.542969 554.101562 L 949.8125 554.25 C 949.8125 554.25 918.765625 564.460938 936.632812 570.886719 C 954.5 577.304688 971.191406 566.363281 978.808594 567.820312 C 986.417969 569.28125 990.226562 565.488281 989.347656 559.210938 "/>
<path style=" stroke:none;fill-rule:nonzero;fill:rgb(24.708557%,30.589294%,66.268921%);fill-opacity:1;" d="M 1046.019531 408.882812 C 1046.019531 408.882812 1048.363281 450.628906 996.523438 433.40625 C 996.523438 433.40625 992.128906 525.054688 990.371094 536.734375 L 962.671875 530.894531 C 962.671875 530.894531 957.378906 448 956.597656 422.699219 C 955.816406 397.40625 1042.972656 395.847656 1042.972656 395.847656 L 1046.019531 408.882812 "/>
<path style=" stroke:none;fill-rule:nonzero;fill:rgb(24.708557%,30.589294%,66.268921%);fill-opacity:1;" d="M 976.125 385.339844 C 976.125 385.339844 889.039062 381.839844 891.777344 420.757812 C 894.507812 459.671875 900.367188 523.890625 900.367188 523.890625 L 930.042969 525.835938 C 930.042969 525.835938 935.445312 442.554688 933.917969 431.261719 C 932.386719 419.976562 976.125 440.996094 976.125 440.996094 L 1032.84375 387.285156 L 976.125 385.339844 "/>
<path style=" stroke:none;fill-rule:nonzero;fill:rgb(59.21936%,51.759338%,78.819275%);fill-opacity:1;" d="M 1053.152344 392.34375 C 1053.046875 395.847656 1053.152344 416.867188 1053.152344 416.867188 C 1053.152344 416.867188 996.425781 395.457031 985.101562 395.457031 C 973.777344 395.457031 1053.152344 392.34375 1053.152344 392.34375 "/>
<path style=" stroke:none;fill-rule:nonzero;fill:rgb(59.21936%,51.759338%,78.819275%);fill-opacity:1;" d="M 1069.382812 361.597656 C 1065.492188 364.496094 1056.914062 366.246094 1038.265625 362.046875 L 1036.332031 361.597656 L 1069.382812 361.597656 "/>
<path style=" stroke:none;fill-rule:nonzero;fill:rgb(59.21936%,51.759338%,78.819275%);fill-opacity:1;" d="M 963.492188 361.597656 C 955.101562 365.703125 945.800781 367.125 944.144531 362.183594 C 944.085938 361.996094 944.03125 361.796875 943.996094 361.597656 L 963.492188 361.597656 "/>
<path style=" stroke:none;fill-rule:nonzero;fill:rgb(63.919067%,83.139038%,94.898987%);fill-opacity:1;" d="M 1135.4375 361.597656 L 1120.605469 378.730469 L 720 378.332031 L 748.898438 361.597656 L 934.34375 361.597656 L 920.667969 369.105469 L 1018.574219 369.105469 L 1035.652344 361.597656 L 1036.332031 361.597656 L 1038.265625 362.046875 C 1048.039062 364.25 1055.042969 364.8125 1060.050781 364.4375 C 1064.613281 364.097656 1067.527344 362.976562 1069.382812 361.597656 L 1135.4375 361.597656 "/>
<path style=" stroke:none;fill-rule:nonzero;fill:rgb(98.039246%,98.039246%,99.21875%);fill-opacity:1;" d="M 1035.652344 361.597656 L 1018.574219 369.105469 L 920.667969 369.105469 L 934.34375 361.597656 L 943.996094 361.597656 C 944.03125 361.796875 944.085938 361.996094 944.144531 362.183594 C 945.800781 367.125 955.101562 365.703125 963.492188 361.597656 L 1035.652344 361.597656 "/>
<path style=" stroke:none;fill-rule:nonzero;fill:rgb(84.709167%,57.649231%,52.159119%);fill-opacity:1;" d="M 952.300781 352.113281 C 952.300781 352.113281 967.386719 340.578125 971.628906 353.058594 C 975.882812 365.535156 969.652344 368.015625 964.671875 366.488281 C 959.699219 364.957031 952.519531 352.914062 952.300781 352.113281 "/>
<path style=" stroke:none;fill-rule:nonzero;fill:rgb(81.568909%,93.728638%,95.289612%);fill-opacity:1;" d="M 1120.601562 378.722656 L 1120.601562 399.542969 L 720.007812 398.378906 L 720.007812 378.335938 L 1120.601562 378.722656 "/>
<path style=" stroke:none;fill-rule:nonzero;fill:rgb(57.649231%,63.919067%,72.938538%);fill-opacity:1;" d="M 1135.445312 361.597656 L 1135.445312 383.003906 L 1120.601562 399.542969 L 1120.601562 378.722656 L 1135.445312 361.597656 "/>
<path style=" stroke:none;fill-rule:nonzero;fill:rgb(88.62915%,95.289612%,98.81897%);fill-opacity:1;" d="M 823.144531 233.75 L 961.671875 233.75 L 973.039062 347.257812 L 834.566406 341.453125 L 823.144531 233.75 "/>
<path style=" stroke:none;fill-rule:nonzero;fill:rgb(99.609375%,98.81897%,99.609375%);fill-opacity:1;" d="M 889.820312 364.546875 L 918.523438 366.074219 L 894.507812 373.664062 Z M 889.820312 364.546875 "/>
<path style=" stroke:none;fill-rule:nonzero;fill:rgb(87.449646%,91.758728%,91.369629%);fill-opacity:1;" d="M 889.820312 295.066406 L 860.925781 371.386719 L 894.507812 373.664062 L 900.367188 295.066406 L 889.820312 295.066406 "/>
<path style=" stroke:none;fill-rule:nonzero;fill:rgb(81.568909%,93.728638%,95.289612%);fill-opacity:1;" d="M 761.203125 395.457031 L 720.78125 605.621094 L 729.574219 605.621094 L 784.042969 395.457031 L 761.203125 395.457031 "/>
<path style=" stroke:none;fill-rule:nonzero;fill:rgb(81.568909%,93.728638%,95.289612%);fill-opacity:1;" d="M 750.851562 573.707031 L 761.398438 573.707031 L 805.523438 389.230469 L 784.042969 389.230469 L 750.851562 573.707031 "/>
<g clip-path="url(#clip1)" clip-rule="nonzero">
<path style=" stroke:none;fill-rule:nonzero;fill:rgb(81.568909%,93.728638%,95.289612%);fill-opacity:1;" d="M 1086.628906 392.34375 L 1129.585938 606.011719 L 1118.648438 606.011719 L 1063.203125 389.621094 L 1086.628906 392.34375 "/>
</g>
<g clip-path="url(#clip2)" clip-rule="nonzero">
<path style=" stroke:none;fill-rule:nonzero;fill:rgb(81.568909%,93.728638%,95.289612%);fill-opacity:1;" d="M 1110.839844 395.457031 L 1146.375 574.101562 L 1136.613281 574.101562 L 1092.875 392.34375 L 1110.839844 395.457031 "/>
</g>
<path style=" stroke:none;fill-rule:nonzero;fill:rgb(98.429871%,87.449646%,46.269226%);fill-opacity:1;" d="M 1087.890625 373.773438 L 1071.574219 373.773438 L 1068.109375 338.351562 L 1091.351562 338.351562 L 1087.890625 373.773438 "/>
<path style=" stroke:none;fill-rule:nonzero;fill:rgb(46.269226%,80.389404%,51.759338%);fill-opacity:1;" d="M 1089.199219 360.398438 L 1070.265625 360.398438 L 1069.019531 347.625 L 1090.445312 347.625 L 1089.199219 360.398438 "/>
<path style=" stroke:none;fill-rule:nonzero;fill:rgb(46.269226%,80.389404%,51.759338%);fill-opacity:1;" d="M 1090.234375 335.90625 L 1069.230469 335.90625 C 1067.875 335.90625 1066.769531 337 1066.769531 338.351562 L 1092.695312 338.351562 C 1092.695312 337 1091.59375 335.90625 1090.234375 335.90625 "/>
<path style=" stroke:none;fill-rule:nonzero;fill:rgb(46.269226%,80.389404%,51.759338%);fill-opacity:1;" d="M 1090.5 335.855469 L 1068.964844 335.855469 C 1068.964844 334.601562 1069.980469 333.585938 1071.242188 333.585938 L 1088.222656 333.585938 C 1089.484375 333.585938 1090.5 334.601562 1090.5 335.855469 "/>
<path style=" stroke:none;fill-rule:nonzero;fill:rgb(28.239441%,40.779114%,73.329163%);fill-opacity:1;" d="M 841.921875 375.371094 L 769.953125 375.371094 L 769.953125 363.753906 L 841.921875 363.753906 L 841.921875 375.371094 "/>
<path style=" stroke:none;fill-rule:nonzero;fill:rgb(88.62915%,95.289612%,98.81897%);fill-opacity:1;" d="M 826.773438 372.925781 L 785.105469 372.925781 L 785.105469 366.199219 L 826.773438 366.199219 L 826.773438 372.925781 "/>
<path style=" stroke:none;fill-rule:nonzero;fill:rgb(62.748718%,56.469727%,81.17981%);fill-opacity:1;" d="M 845.8125 354.382812 L 778.132812 354.382812 L 778.132812 363.753906 L 845.8125 363.753906 L 845.8125 354.382812 "/>
<path style=" stroke:none;fill-rule:nonzero;fill:rgb(98.429871%,96.859741%,92.549133%);fill-opacity:1;" d="M 831.5625 356.351562 L 792.375 356.351562 L 792.375 361.78125 L 831.5625 361.78125 L 831.5625 356.351562 "/>
<path style=" stroke:none;fill-rule:nonzero;fill:rgb(98.429871%,96.859741%,92.549133%);fill-opacity:1;" d="M 782.015625 356.351562 L 787.328125 356.351562 L 787.328125 361.78125 L 782.015625 361.78125 L 782.015625 356.351562 "/>
<path style=" stroke:none;fill-rule:nonzero;fill:rgb(53.329468%,52.159119%,79.219055%);fill-opacity:1;" d="M 837.835938 354.382812 L 772.199219 354.382812 L 772.199219 342.15625 L 837.835938 342.15625 L 837.835938 354.382812 "/>
<path style=" stroke:none;fill-rule:nonzero;fill:rgb(29.019165%,36.859131%,50.19989%);fill-opacity:1;" d="M 783.039062 351.804688 L 786.019531 351.804688 L 786.019531 344.726562 L 783.039062 344.726562 L 783.039062 351.804688 "/>
<path style=" stroke:none;fill-rule:nonzero;fill:rgb(29.019165%,36.859131%,50.19989%);fill-opacity:1;" d="M 790.019531 351.804688 L 822.941406 351.804688 L 822.941406 344.726562 L 790.019531 344.726562 L 790.019531 351.804688 "/>
<path style=" stroke:none;fill-rule:nonzero;fill:rgb(29.019165%,36.859131%,50.19989%);fill-opacity:1;" d="M 835.996094 351.804688 L 824.546875 351.804688 L 824.546875 344.726562 L 835.996094 344.726562 L 835.996094 351.804688 "/>
<path style=" stroke:none;fill-rule:nonzero;fill:rgb(29.019165%,36.859131%,50.19989%);fill-opacity:1;" d="M 775.96875 351.804688 L 781.125 351.804688 L 781.125 344.726562 L 775.96875 344.726562 L 775.96875 351.804688 "/>
</g>
</svg>
