<?xml version="1.0" encoding="UTF-8"?>
<svg xmlns="http://www.w3.org/2000/svg" xmlns:xlink="http://www.w3.org/1999/xlink" width="1440pt" height="809.999993pt" viewBox="0 0 1440 809.999993" version="1.2">
<defs>
<clipPath id="clip1">
  <path d="M 567.125 343 L 1157 343 L 1157 369 L 567.125 369 Z M 567.125 343 "/>
</clipPath>
<clipPath id="clip2">
  <path d="M 567.125 367 L 1136 367 L 1136 398 L 567.125 398 Z M 567.125 367 "/>
</clipPath>
<clipPath id="clip3">
  <path d="M 568 392 L 658 392 L 658 691.757812 L 568 691.757812 Z M 568 392 "/>
</clipPath>
<clipPath id="clip4">
  <path d="M 1053.035156 383 L 1148 383 L 1148 691.757812 L 1053.035156 691.757812 Z M 1053.035156 383 "/>
</clipPath>
<clipPath id="clip5">
  <path d="M 1095 387 L 1171.542969 387 L 1171.542969 647 L 1095 647 Z M 1095 387 "/>
</clipPath>
</defs>
<g id="surface1">
<rect x="0" y="0" width="1440" height="809.999993" style="fill:rgb(100%,100%,100%);fill-opacity:1;stroke:none;"/>
<rect x="0" y="0" width="1440" height="809.999993" style="fill:rgb(100%,100%,100%);fill-opacity:1;stroke:none;"/>
<rect x="0" y="0" width="1440" height="809.999993" style="fill:rgb(94.509888%,98.039246%,93.328857%);fill-opacity:1;stroke:none;"/>
<path style=" stroke:none;fill-rule:nonzero;fill:rgb(12.548828%,29.798889%,41.178894%);fill-opacity:1;" d="M 998.015625 433.859375 C 1092.484375 211.242188 982.683594 111.042969 947.566406 53.785156 C 895.878906 -30.375 908.988281 -52.832031 908.988281 -52.832031 L 869.417969 -52.832031 C 881.042969 33.054688 1079.625 182.863281 989.855469 364.507812 C 857.796875 631.300781 958.449219 809.242188 958.449219 809.242188 L 1002.960938 809.242188 C 1002.960938 809.242188 893.902344 679.425781 998.015625 433.859375 Z M 998.015625 433.859375 "/>
<path style=" stroke:none;fill-rule:nonzero;fill:rgb(27.059937%,48.239136%,61.569214%);fill-opacity:1;" d="M 993.5625 536.035156 C 1067.753906 327.488281 1090.507812 231.726562 1007.90625 106.601562 C 935.199219 -3.472656 945.339844 -52.832031 945.339844 -52.832031 L 908.988281 -52.832031 C 908.988281 -52.832031 895.878906 -30.375 947.566406 53.785156 C 982.683594 111.042969 1092.484375 211.242188 998.015625 433.859375 C 893.902344 679.179688 1002.714844 808.996094 1002.714844 808.996094 L 1055.636719 808.996094 C 1055.636719 809.242188 945.339844 671.035156 993.5625 536.035156 Z M 993.5625 536.035156 "/>
<path style=" stroke:none;fill-rule:nonzero;fill:rgb(65.879822%,85.488892%,86.268616%);fill-opacity:1;" d="M 1304.917969 -52.832031 L 945.09375 -52.832031 C 945.09375 -52.832031 935.199219 -3.472656 1007.660156 106.601562 C 1090.011719 231.480469 1067.507812 327.488281 993.316406 536.035156 C 945.339844 671.035156 1055.636719 809.242188 1055.636719 809.242188 L 1526.25 809.242188 L 1526.25 -52.832031 Z M 1304.917969 -52.832031 "/>
<path style=" stroke:none;fill-rule:nonzero;fill:rgb(59.21936%,64.309692%,71.759033%);fill-opacity:1;" d="M 1072.480469 327.191406 C 1072.480469 327.191406 1059.855469 413.207031 1058.636719 435.253906 C 1057.414062 457.292969 1046.644531 426.941406 1046.644531 426.941406 L 1063.667969 311.699219 L 1072.480469 327.191406 "/>
<path style=" stroke:none;fill-rule:nonzero;fill:rgb(36.079407%,58.81958%,83.918762%);fill-opacity:1;" d="M 994.976562 265.722656 C 994.976562 265.722656 1133.089844 234.238281 1092.398438 337.652344 L 965.921875 330.953125 L 994.976562 265.722656 "/>
<path style=" stroke:none;fill-rule:nonzero;fill:rgb(59.21936%,51.759338%,78.819275%);fill-opacity:1;" d="M 1054.890625 241.621094 L 1049.1875 347.878906 L 1048.664062 357.773438 C 1048.664062 357.773438 914.5625 355.675781 928.261719 344.671875 C 928.605469 344.390625 928.9375 344.125 929.257812 343.839844 C 941.8125 333.007812 938.773438 320.253906 927.847656 332.621094 C 924.078125 336.894531 918.359375 340.867188 912.292969 343.839844 L 884.664062 343.839844 C 882.335938 332.683594 901.753906 306.132812 920.589844 277.558594 C 939.878906 248.273438 954.199219 238.5 959.394531 237.265625 C 961.988281 236.636719 970.875 233.910156 979.171875 231.332031 C 980.953125 230.765625 982.695312 230.222656 984.34375 229.707031 C 984.738281 230.207031 985.332031 230.9375 986.035156 231.8125 C 995.945312 244.070312 996.890625 244.855469 997.664062 245.386719 C 999.828125 246.855469 1004.664062 249.03125 1014.550781 245.9375 C 1019.445312 242.292969 1024.332031 238.65625 1029.226562 235.011719 C 1031.210938 233.164062 1033.1875 231.308594 1035.164062 229.460938 C 1036.769531 232.226562 1038.375 235.003906 1039.980469 237.769531 L 1054.890625 241.621094 "/>
<path style=" stroke:none;fill-rule:nonzero;fill:rgb(84.709167%,57.649231%,52.159119%);fill-opacity:1;" d="M 1006.878906 320.914062 C 1006.253906 320.570312 975.738281 320.914062 975.738281 320.914062 C 975.738281 320.914062 960.792969 314.96875 953.3125 317.246094 C 945.839844 319.53125 933.179688 326.390625 946.261719 335.527344 C 946.261719 335.527344 949.378906 338.019531 950.832031 337.609375 C 952.28125 337.1875 961.207031 333.242188 966.601562 335.527344 C 972 337.8125 978.023438 334.898438 978.023438 334.898438 L 1010.617188 337.652344 L 1006.878906 320.914062 "/>
<path style=" stroke:none;fill-rule:nonzero;fill:rgb(59.21936%,51.759338%,78.819275%);fill-opacity:1;" d="M 1073.304688 275.488281 C 1065 318.078125 1066.65625 333.449219 1066.65625 333.449219 C 1066.65625 333.449219 1068.195312 339.550781 1062.414062 343.839844 L 1015.5625 343.839844 L 1008.339844 342.179688 C 1008.339844 342.179688 1003.554688 330.859375 1003.324219 319.324219 C 1003.289062 318.363281 1003.308594 317.382812 1003.351562 316.417969 C 1003.351562 316.417969 1022.375 314.949219 1033.410156 315.183594 C 1036.820312 315.269531 1039.457031 315.5 1040.574219 316 C 1038.742188 287.050781 1036.941406 258.117188 1035.109375 229.160156 C 1041.097656 229.375 1049.902344 230.121094 1060.429688 232.683594 C 1066.210938 234.082031 1067.429688 234.789062 1068.144531 235.277344 C 1073.46875 238.984375 1078.535156 248.671875 1073.304688 275.488281 "/>
<path style=" stroke:none;fill-rule:nonzero;fill:rgb(65.489197%,68.629456%,87.449646%);fill-opacity:1;" d="M 1003.324219 319.324219 C 1003.289062 318.363281 1003.308594 317.382812 1003.351562 316.417969 C 1003.351562 316.417969 1022.375 314.949219 1033.410156 315.183594 L 1040.574219 316 C 1040.574219 316 1044.445312 317.65625 1046.535156 324.722656 C 1048.347656 330.9375 1027.554688 320.289062 1003.324219 319.324219 "/>
<path style=" stroke:none;fill-rule:nonzero;fill:rgb(84.709167%,57.649231%,52.159119%);fill-opacity:1;" d="M 1036.339844 229.210938 L 1029.792969 235.011719 L 1015.863281 247.320312 C 995.585938 253.871094 988.242188 241.242188 985.625 232.449219 C 985.3125 231.488281 985.082031 230.550781 984.902344 229.707031 C 985.039062 229.527344 985.203125 229.347656 985.390625 229.160156 C 985.753906 228.796875 986.113281 228.53125 986.421875 228.332031 C 987.382812 226.976562 988.613281 225 989.136719 223.089844 C 989.203125 222.867188 989.359375 222.238281 989.539062 221.484375 C 989.753906 220.546875 989.933594 219.601562 990.089844 218.636719 C 991.515625 218.988281 994.359375 219.453125 997.457031 218.285156 C 1004.46875 215.679688 1005.839844 207.386719 1005.910156 207 C 1007.660156 205.160156 1009.570312 202.917969 1011.441406 200.207031 C 1012.96875 198.007812 1014.199219 195.902344 1015.175781 193.96875 C 1015.28125 188.355469 1018.035156 183.492188 1022.375 181.503906 C 1024.863281 180.378906 1027.269531 180.472656 1028.746094 180.679688 C 1026.289062 188.457031 1024.316406 199.023438 1027.5 209.757812 L 1027.519531 209.757812 C 1027.769531 210.679688 1028.066406 211.570312 1028.421875 212.484375 C 1029.792969 216.074219 1030.757812 218.972656 1031.769531 221.484375 C 1032.964844 224.421875 1034.226562 226.828125 1036.339844 229.210938 "/>
<path style=" stroke:none;fill-rule:nonzero;fill:rgb(9.01947%,9.01947%,16.859436%);fill-opacity:1;" d="M 1030.671875 136.910156 C 1017.117188 118.34375 976.984375 138.863281 964.53125 134.144531 C 952.066406 129.441406 953.183594 149.101562 953.183594 149.101562 C 953.183594 149.101562 951.242188 161.5625 964.246094 165.164062 C 966.703125 165.851562 969.761719 165.929688 973.101562 165.65625 C 987.410156 164.425781 1006.921875 156.277344 1007.15625 158.519531 C 1007.429688 161.296875 1019.050781 172.367188 1019.050781 172.367188 L 1019.050781 178.410156 L 1018.089844 187.246094 L 1021.402344 180.34375 L 1029.296875 184.761719 C 1028.085938 188.726562 1025.871094 191.296875 1024.332031 192.695312 C 1024.675781 195.328125 1025.234375 198.859375 1026.023438 202.726562 C 1026.308594 207.023438 1027.699219 212.199219 1028.421875 212.484375 C 1029.132812 212.011719 1029.898438 211.46875 1030.671875 210.875 C 1058.359375 190.101562 1044.242188 155.476562 1030.671875 136.910156 "/>
<path style=" stroke:none;fill-rule:nonzero;fill:rgb(92.158508%,71.369934%,67.059326%);fill-opacity:1;" d="M 1030.113281 180.257812 C 1029.65625 186.859375 1026.394531 190.8125 1024.332031 192.695312 C 1023.851562 193.125 1023.414062 193.445312 1023.121094 193.660156 C 1022.820312 193.875 1022.65625 193.96875 1022.65625 193.96875 C 1022.109375 197.914062 1018.234375 202.847656 1014.421875 206.871094 C 1010.480469 211.039062 1006.597656 214.203125 1006.597656 214.203125 C 999.871094 218.328125 994.453125 219.503906 990.089844 218.636719 C 972.878906 215.242188 972.214844 179.8125 973.101562 165.65625 C 987.410156 164.425781 1006.921875 156.277344 1007.15625 158.519531 C 1007.429688 161.296875 1019.050781 172.367188 1019.050781 172.367188 L 1019.050781 183.996094 C 1018.648438 185.328125 1018.320312 186.414062 1018.089844 187.246094 C 1018.699219 185.21875 1019.746094 181.746094 1021.242188 176.785156 L 1021.402344 180.34375 C 1022.640625 175.214844 1029.675781 168.042969 1030.128906 177.636719 C 1030.179688 178.546875 1030.164062 179.433594 1030.113281 180.257812 "/>
<path style=" stroke:none;fill-rule:nonzero;fill:rgb(84.709167%,57.649231%,52.159119%);fill-opacity:1;" d="M 984.902344 229.707031 C 984.902344 229.707031 1004.070312 272.195312 1036.339844 229.210938 L 984.902344 229.707031 "/>
<path style=" stroke:none;fill-rule:nonzero;fill:rgb(25.878906%,45.489502%,76.469421%);fill-opacity:1;" d="M 965.929688 540.511719 C 966.753906 517.238281 954.566406 469.042969 954.566406 466.832031 L 978.359375 466.832031 Z M 986.945312 469.738281 L 979.472656 434.136719 L 862.675781 419.746094 L 831.121094 492.875 C 831.121094 492.875 848.273438 551.042969 864.335938 498.414062 C 880.378906 445.773438 918.898438 451.703125 941.375 467.375 C 963.851562 483.070312 960.65625 616.410156 961.207031 625.558594 C 961.753906 634.695312 969.675781 625.558594 969.675781 625.558594 C 969.011719 583.171875 986.945312 469.738281 986.945312 469.738281 "/>
<path style=" stroke:none;fill-rule:nonzero;fill:rgb(25.878906%,45.489502%,76.469421%);fill-opacity:1;" d="M 1043.132812 459.628906 L 1084.660156 621.398438 L 1095.722656 618.078125 L 1053.652344 454.644531 L 1043.132812 459.628906 "/>
<path style=" stroke:none;fill-rule:nonzero;fill:rgb(36.079407%,58.81958%,83.918762%);fill-opacity:1;" d="M 1024.976562 414.203125 C 1024.976562 414.203125 1065.273438 413.644531 1063.617188 435.253906 C 1061.957031 456.863281 1060.328125 460.738281 1032.914062 466.273438 C 1005.496094 471.816406 949.585938 486.773438 857.6875 461.289062 C 765.796875 435.804688 882.464844 433.59375 884.46875 433.59375 C 886.476562 433.59375 1024.976562 414.203125 1024.976562 414.203125 "/>
<path style=" stroke:none;fill-rule:nonzero;fill:rgb(84.709167%,57.649231%,52.159119%);fill-opacity:1;" d="M 824.613281 570.503906 C 824.398438 574.964844 822.121094 616.617188 822.121094 616.617188 L 853.882812 606.234375 L 852.636719 567.796875 L 824.613281 570.503906 "/>
<path style=" stroke:none;fill-rule:nonzero;fill:rgb(12.548828%,15.289307%,31.759644%);fill-opacity:1;" d="M 859.902344 611.839844 C 858.65625 602.90625 857.832031 594.597656 854.296875 594.183594 C 850.773438 593.769531 834.574219 609.765625 825.023438 607.066406 C 825.023438 607.066406 829.386719 594.597656 820.875 593.144531 C 812.367188 591.691406 806.140625 592.9375 804.894531 604.566406 L 803.855469 604.78125 C 803.855469 604.78125 759.847656 619.324219 785.175781 628.460938 C 810.5 637.609375 834.164062 622.023438 844.960938 624.097656 C 855.746094 626.175781 861.148438 620.777344 859.902344 611.839844 "/>
<path style=" stroke:none;fill-rule:nonzero;fill:rgb(84.709167%,57.649231%,52.159119%);fill-opacity:1;" d="M 913.667969 583.792969 C 913.453125 588.261719 911.175781 629.914062 911.175781 629.914062 L 942.9375 619.53125 L 941.691406 581.09375 L 913.667969 583.792969 "/>
<path style=" stroke:none;fill-rule:nonzero;fill:rgb(12.548828%,15.289307%,31.759644%);fill-opacity:1;" d="M 948.957031 625.136719 C 947.714844 616.207031 946.890625 607.894531 943.351562 607.480469 C 939.828125 607.066406 923.632812 623.0625 914.089844 620.367188 C 914.089844 620.367188 918.445312 607.894531 909.933594 606.441406 C 901.421875 604.988281 895.195312 606.234375 893.949219 617.863281 L 892.910156 618.078125 C 892.910156 618.078125 848.902344 632.613281 874.230469 641.757812 C 899.558594 650.898438 923.21875 635.320312 934.015625 637.394531 C 944.800781 639.472656 950.203125 634.074219 948.957031 625.136719 "/>
<path style=" stroke:none;fill-rule:nonzero;fill:rgb(24.708557%,30.589294%,66.268921%);fill-opacity:1;" d="M 1029.296875 411.152344 C 1029.296875 411.152344 1032.621094 470.570312 959.128906 446.058594 C 959.128906 446.058594 952.902344 576.519531 950.410156 593.144531 L 911.144531 584.832031 C 911.144531 584.832031 903.636719 466.832031 902.527344 430.816406 C 901.421875 394.8125 1024.976562 392.59375 1024.976562 392.59375 L 1029.296875 411.152344 "/>
<path style=" stroke:none;fill-rule:nonzero;fill:rgb(24.708557%,30.589294%,66.268921%);fill-opacity:1;" d="M 930.210938 377.636719 C 930.210938 377.636719 806.757812 372.652344 810.640625 428.050781 C 814.511719 483.449219 822.816406 574.859375 822.816406 574.859375 L 864.886719 577.628906 C 864.886719 577.628906 872.546875 459.078125 870.382812 443.003906 C 868.207031 426.941406 930.210938 456.863281 930.210938 456.863281 L 1010.617188 380.40625 L 930.210938 377.636719 "/>
<path style=" stroke:none;fill-rule:nonzero;fill:rgb(59.21936%,51.759338%,78.819275%);fill-opacity:1;" d="M 1039.40625 387.609375 C 1039.257812 392.59375 1039.40625 422.515625 1039.40625 422.515625 C 1039.40625 422.515625 958.988281 392.035156 942.9375 392.035156 C 926.886719 392.035156 1039.40625 387.609375 1039.40625 387.609375 "/>
<path style=" stroke:none;fill-rule:nonzero;fill:rgb(59.21936%,51.759338%,78.819275%);fill-opacity:1;" d="M 1062.414062 343.839844 C 1056.898438 347.964844 1044.738281 350.457031 1018.304688 344.476562 L 1015.5625 343.839844 L 1062.414062 343.839844 "/>
<path style=" stroke:none;fill-rule:nonzero;fill:rgb(59.21936%,51.759338%,78.819275%);fill-opacity:1;" d="M 912.300781 343.839844 C 900.40625 349.683594 887.222656 351.703125 884.878906 344.671875 C 884.792969 344.40625 884.714844 344.125 884.664062 343.839844 L 912.300781 343.839844 "/>
<g clip-path="url(#clip1)" clip-rule="nonzero">
<path style=" stroke:none;fill-rule:nonzero;fill:rgb(63.919067%,83.139038%,94.898987%);fill-opacity:1;" d="M 1156.054688 343.839844 L 1135.03125 368.226562 L 567.125 367.65625 L 608.09375 343.839844 L 870.984375 343.839844 L 851.597656 354.523438 L 990.390625 354.523438 L 1014.601562 343.839844 L 1015.5625 343.839844 L 1018.304688 344.476562 C 1032.15625 347.613281 1042.085938 348.414062 1049.1875 347.878906 C 1055.65625 347.398438 1059.785156 345.800781 1062.414062 343.839844 L 1156.054688 343.839844 "/>
</g>
<path style=" stroke:none;fill-rule:nonzero;fill:rgb(98.039246%,98.039246%,99.21875%);fill-opacity:1;" d="M 1014.601562 343.839844 L 990.390625 354.523438 L 851.597656 354.523438 L 870.984375 343.839844 L 884.664062 343.839844 C 884.714844 344.125 884.792969 344.40625 884.878906 344.671875 C 887.222656 351.703125 900.40625 349.683594 912.300781 343.839844 L 1014.601562 343.839844 "/>
<path style=" stroke:none;fill-rule:nonzero;fill:rgb(84.709167%,57.649231%,52.159119%);fill-opacity:1;" d="M 896.4375 330.335938 C 896.4375 330.335938 917.824219 313.917969 923.835938 331.683594 C 929.867188 349.445312 921.039062 352.976562 913.976562 350.800781 C 906.925781 348.617188 896.75 331.480469 896.4375 330.335938 "/>
<g clip-path="url(#clip2)" clip-rule="nonzero">
<path style=" stroke:none;fill-rule:nonzero;fill:rgb(81.568909%,93.728638%,95.289612%);fill-opacity:1;" d="M 1135.023438 368.214844 L 1135.023438 397.855469 L 567.136719 396.195312 L 567.136719 367.667969 L 1135.023438 368.214844 "/>
</g>
<path style=" stroke:none;fill-rule:nonzero;fill:rgb(57.649231%,63.919067%,72.938538%);fill-opacity:1;" d="M 1156.0625 343.839844 L 1156.0625 374.308594 L 1135.023438 397.855469 L 1135.023438 368.214844 L 1156.0625 343.839844 "/>
<path style=" stroke:none;fill-rule:nonzero;fill:rgb(88.62915%,95.289612%,98.81897%);fill-opacity:1;" d="M 713.347656 161.847656 L 909.726562 161.847656 L 925.839844 323.425781 L 729.535156 315.164062 L 713.347656 161.847656 "/>
<path style=" stroke:none;fill-rule:nonzero;fill:rgb(99.609375%,98.81897%,99.609375%);fill-opacity:1;" d="M 807.863281 348.035156 L 848.558594 350.207031 L 814.511719 361.011719 Z M 807.863281 348.035156 "/>
<path style=" stroke:none;fill-rule:nonzero;fill:rgb(87.449646%,91.758728%,91.369629%);fill-opacity:1;" d="M 807.863281 249.132812 L 766.90625 357.773438 L 814.511719 361.011719 L 822.816406 249.132812 L 807.863281 249.132812 "/>
<g clip-path="url(#clip3)" clip-rule="nonzero">
<path style=" stroke:none;fill-rule:nonzero;fill:rgb(81.568909%,93.728638%,95.289612%);fill-opacity:1;" d="M 625.539062 392.035156 L 568.234375 691.199219 L 580.695312 691.199219 L 657.917969 392.035156 L 625.539062 392.035156 "/>
</g>
<path style=" stroke:none;fill-rule:nonzero;fill:rgb(81.568909%,93.728638%,95.289612%);fill-opacity:1;" d="M 610.859375 645.773438 L 625.8125 645.773438 L 688.363281 383.171875 L 657.917969 383.171875 L 610.859375 645.773438 "/>
<g clip-path="url(#clip4)" clip-rule="nonzero">
<path style=" stroke:none;fill-rule:nonzero;fill:rgb(81.568909%,93.728638%,95.289612%);fill-opacity:1;" d="M 1086.867188 387.609375 L 1147.757812 691.757812 L 1132.257812 691.757812 L 1053.652344 383.730469 L 1086.867188 387.609375 "/>
</g>
<g clip-path="url(#clip5)" clip-rule="nonzero">
<path style=" stroke:none;fill-rule:nonzero;fill:rgb(81.568909%,93.728638%,95.289612%);fill-opacity:1;" d="M 1121.1875 392.035156 L 1171.558594 646.332031 L 1157.722656 646.332031 L 1095.722656 387.609375 L 1121.1875 392.035156 "/>
</g>
<path style=" stroke:none;fill-rule:nonzero;fill:rgb(98.429871%,87.449646%,46.269226%);fill-opacity:1;" d="M 1088.652344 361.167969 L 1065.523438 361.167969 L 1060.609375 310.746094 L 1093.554688 310.746094 L 1088.652344 361.167969 "/>
<path style=" stroke:none;fill-rule:nonzero;fill:rgb(46.269226%,80.389404%,51.759338%);fill-opacity:1;" d="M 1090.507812 342.128906 L 1063.667969 342.128906 L 1061.898438 323.949219 L 1092.277344 323.949219 L 1090.507812 342.128906 "/>
<path style=" stroke:none;fill-rule:nonzero;fill:rgb(46.269226%,80.389404%,51.759338%);fill-opacity:1;" d="M 1091.976562 307.265625 L 1062.199219 307.265625 C 1060.277344 307.265625 1058.710938 308.820312 1058.710938 310.746094 L 1095.464844 310.746094 C 1095.464844 308.820312 1093.898438 307.265625 1091.976562 307.265625 "/>
<path style=" stroke:none;fill-rule:nonzero;fill:rgb(46.269226%,80.389404%,51.759338%);fill-opacity:1;" d="M 1092.355469 307.195312 L 1061.820312 307.195312 C 1061.820312 305.410156 1063.265625 303.964844 1065.050781 303.964844 L 1089.125 303.964844 C 1090.910156 303.964844 1092.355469 305.410156 1092.355469 307.195312 "/>
<path style=" stroke:none;fill-rule:nonzero;fill:rgb(28.239441%,40.779114%,73.329163%);fill-opacity:1;" d="M 739.964844 363.445312 L 637.941406 363.445312 L 637.941406 346.90625 L 739.964844 346.90625 L 739.964844 363.445312 "/>
<path style=" stroke:none;fill-rule:nonzero;fill:rgb(88.62915%,95.289612%,98.81897%);fill-opacity:1;" d="M 718.492188 359.964844 L 659.417969 359.964844 L 659.417969 350.390625 L 718.492188 350.390625 L 718.492188 359.964844 "/>
<path style=" stroke:none;fill-rule:nonzero;fill:rgb(62.748718%,56.469727%,81.17981%);fill-opacity:1;" d="M 745.476562 333.566406 L 649.535156 333.566406 L 649.535156 346.90625 L 745.476562 346.90625 L 745.476562 333.566406 "/>
<path style=" stroke:none;fill-rule:nonzero;fill:rgb(98.429871%,96.859741%,92.549133%);fill-opacity:1;" d="M 725.277344 336.371094 L 669.726562 336.371094 L 669.726562 344.097656 L 725.277344 344.097656 L 725.277344 336.371094 "/>
<path style=" stroke:none;fill-rule:nonzero;fill:rgb(98.429871%,96.859741%,92.549133%);fill-opacity:1;" d="M 655.039062 336.371094 L 662.570312 336.371094 L 662.570312 344.097656 L 655.039062 344.097656 L 655.039062 336.371094 "/>
<path style=" stroke:none;fill-rule:nonzero;fill:rgb(53.329468%,52.159119%,79.219055%);fill-opacity:1;" d="M 734.175781 333.566406 L 641.125 333.566406 L 641.125 316.160156 L 734.175781 316.160156 L 734.175781 333.566406 "/>
<path style=" stroke:none;fill-rule:nonzero;fill:rgb(29.019165%,36.859131%,50.19989%);fill-opacity:1;" d="M 656.492188 329.898438 L 660.714844 329.898438 L 660.714844 319.824219 L 656.492188 319.824219 L 656.492188 329.898438 "/>
<path style=" stroke:none;fill-rule:nonzero;fill:rgb(29.019165%,36.859131%,50.19989%);fill-opacity:1;" d="M 666.386719 329.898438 L 713.054688 329.898438 L 713.054688 319.824219 L 666.386719 319.824219 L 666.386719 329.898438 "/>
<path style=" stroke:none;fill-rule:nonzero;fill:rgb(29.019165%,36.859131%,50.19989%);fill-opacity:1;" d="M 731.5625 329.898438 L 715.332031 329.898438 L 715.332031 319.824219 L 731.5625 319.824219 L 731.5625 329.898438 "/>
<path style=" stroke:none;fill-rule:nonzero;fill:rgb(29.019165%,36.859131%,50.19989%);fill-opacity:1;" d="M 646.46875 329.898438 L 653.777344 329.898438 L 653.777344 319.824219 L 646.46875 319.824219 L 646.46875 329.898438 "/>
</g>
</svg>
